<svg width="128" height="128" viewBox="0 0 24 24" fill="none" xmlns="http://www.w3.org/2000/svg"><path d="M11.25 17a.75.75 0 001.5 0h-1.5zm1.5-7a.75.75 0 00-1.5 0h1.5zm-1.5-2.99a.75.75 0 001.5 0h-1.5zm1.5-.01a.75.75 0 00-1.5 0h1.5zm-8.796 3.166a.75.75 0 10-1.462-.332l1.462.332zM5.5 4.733a.75.75 0 001 1.118l-1-1.118zM12.75 17v-7h-1.5v7h1.5zm0-9.99V7h-1.5v.01h1.5zm7.5 4.99A8.25 8.25 0 0112 20.25v1.5A9.75 9.75 0 0021.75 12h-1.5zM12 20.25A8.25 8.25 0 013.75 12h-1.5A9.75 9.75 0 0012 21.75v-1.5zm0-16.5A8.25 8.25 0 0120.25 12h1.5A9.75 9.75 0 0012 2.25v1.5zM3.75 12c0-.631.07-1.245.204-1.834l-1.462-.332A9.78 9.78 0 002.25 12h1.5zM6.5 5.85a8.217 8.217 0 015.5-2.1v-1.5c-2.497 0-4.776.94-6.5 2.483l1 1.118z" fill="#001A72"/></svg>